<svg xmlns:dc="http://purl.org/dc/elements/1.1/" xmlns:cc="http://creativecommons.org/ns#" xmlns:rdf="http://www.w3.org/1999/02/22-rdf-syntax-ns#" xmlns:svg="http://www.w3.org/2000/svg" xmlns="http://www.w3.org/2000/svg" xmlns:sodipodi="http://sodipodi.sourceforge.net/DTD/sodipodi-0.dtd" xmlns:inkscape="http://www.inkscape.org/namespaces/inkscape" viewBox="0 0 16.933333 21.1666675" version="1.1" x="0px" y="0px"><g transform="translate(0,-280.06665)" style="" display="inline"><path style="color:#000000;font-style:normal;font-variant:normal;font-weight:normal;font-stretch:normal;font-size:medium;line-height:normal;font-family:sans-serif;font-variant-ligatures:normal;font-variant-position:normal;font-variant-caps:normal;font-variant-numeric:normal;font-variant-alternates:normal;font-feature-settings:normal;text-indent:0;text-align:start;text-decoration:none;text-decoration-line:none;text-decoration-style:solid;text-decoration-color:#000000;letter-spacing:normal;word-spacing:normal;text-transform:none;writing-mode:lr-tb;direction:ltr;text-orientation:mixed;dominant-baseline:auto;baseline-shift:baseline;text-anchor:start;white-space:normal;shape-padding:0;clip-rule:nonzero;display:inline;overflow:visible;visibility:visible;opacity:1;isolation:auto;mix-blend-mode:normal;color-interpolation:sRGB;color-interpolation-filters:linearRGB;solid-color:#000000;solid-opacity:1;vector-effect:none;fill:#000000;fill-opacity:1;fill-rule:nonzero;stroke:none;stroke-width:0.5291667;stroke-linecap:round;stroke-linejoin:round;stroke-miterlimit:4;stroke-dasharray:none;stroke-dashoffset:0;stroke-opacity:1;paint-order:normal;color-rendering:auto;image-rendering:auto;shape-rendering:auto;text-rendering:auto;enable-background:accumulate" d="m 6.5523237,281.70171 c -3.357749,0 -6.08593401,2.72818 -6.08593401,6.08593 0,0.66986 0.11008,1.31411 0.310576,1.9172 0.05721,0.13447 0.212802,0.19726 0.34726501,0.14004 0.134454,-0.0572 0.193672,-0.19731 0.145728,-0.35036 -0.147329,-0.45753 -0.239468,-0.94029 -0.263033,-1.44178 h 2.508891 c 0.02069,0.99077 0.155391,1.91868 0.382405,2.73265 -0.480607,0.23418 -0.925152,0.52914 -1.324983,0.87592 -0.346108,-0.35526 -0.644046,-0.75689 -0.885218,-1.19424 -0.05758,-0.13429 -0.212969,-0.19658 -0.347265,-0.13901 -0.134311,0.0576 -0.201743,0.21451 -0.144178,0.34881 1.02971,1.90258 3.043186,3.19671 5.355746,3.19671 0.955696,0 1.858212,-0.22428 2.663404,-0.61805 0.126545,-0.0731 0.169692,-0.23467 0.09664,-0.36122 -0.07308,-0.12653 -0.234682,-0.17027 -0.361218,-0.0971 -0.300199,0.14533 -0.61484,0.26526 -0.943095,0.35398 0.283593,-0.3047 0.535715,-0.68848 0.747758,-1.13275 0.06376,-0.13792 0.02991,-0.28816 -0.09664,-0.36122 -0.126562,-0.073 -0.303678,-0.0294 -0.361218,0.0868 -0.02067,0.046 -0.01484,0.0338 -0.02067,0.046 -0.41159,0.86238 -0.931524,1.38554 -1.460377,1.51826 v -2.59778 c 0.556652,0.0264 1.087946,0.14156 1.589051,0.31988 0.141146,0.0378 0.286709,-0.0469 0.324528,-0.1881 0.03781,-0.14114 -0.04489,-0.28981 -0.186035,-0.32763 -0.545767,-0.19073 -1.123421,-0.31306 -1.727544,-0.339 v -2.12287 h 1.333253 c 0.146125,0 0.264583,-0.11846 0.264583,-0.26458 0,-0.14613 -0.118458,-0.26458 -0.264583,-0.26458 h -1.333253 v -2.12287 c 0.667297,-0.0287 1.304224,-0.17058 1.89911,-0.39791 0.158631,0.58909 0.262578,1.25186 0.311092,1.95389 0.01448,0.14818 0.118464,0.26458 0.264583,0.26458 0.146122,0 0.273366,-0.11639 0.264067,-0.26458 -0.0509,-0.77714 -0.165948,-1.51176 -0.348816,-2.16731 0.480417,-0.2342 0.9247673,-0.52915 1.3244673,-0.87592 0.917185,0.94145 1.500368,2.20601 1.566312,3.6096 8e-6,0.14612 0.118465,0.26458 0.264584,0.26458 0.146123,0 0.266131,-0.11846 0.266133,-0.26458 -0.139333,-3.23481 -2.8073833,-5.82135 -6.0761143,-5.82135 z m -0.264583,0.56534 v 2.60346 c -0.61428,-0.0288 -1.199766,-0.16203 -1.74563,-0.37414 0.08622,-0.2536 0.179952,-0.49369 0.283703,-0.71107 0.411591,-0.86238 0.932754,-1.38553 1.461927,-1.51825 z m 0.529167,0 c 0.528852,0.13272 1.048787,0.65587 1.460376,1.51825 0.103607,0.21708 0.197427,0.45682 0.283703,0.71004 -0.545168,0.21273 -1.130054,0.34623 -1.744079,0.37517 z m -1.719792,0.1571 c -0.283617,0.3047 -0.535706,0.68843 -0.747758,1.13274 -0.107125,0.22446 -0.203262,0.46873 -0.291972,0.72347 -0.395513,-0.19933 -0.764332,-0.44196 -1.098641,-0.72605 0.613366,-0.52078 1.338472,-0.91404 2.138371,-1.13016 z m 2.910934,0 c 0.797827,0.21562 1.521397,0.6072 2.1337203,1.12603 -0.3337793,0.28375 -0.7000383,0.52899 -1.0945073,0.72863 -0.08857,-0.25417 -0.184549,-0.49792 -0.291455,-0.72192 -0.212043,-0.44428 -0.464165,-0.82805 -0.747758,-1.13274 z m -5.435328,1.49138 c 0.399838,0.34672 0.84482,0.6409 1.3255,0.87488 -0.227069,0.81419 -0.36171,1.74224 -0.382405,2.73317 h -2.508891 c 0.06593,-1.40306 0.649161,-2.66674 1.565796,-3.60805 z m 1.815393,1.08675 c 0.595193,0.22724 1.232114,0.36921 1.899626,0.39791 v 2.12339 h -2.242758 c 0.02027,-0.91594 0.142554,-1.77455 0.343132,-2.5213 z m 5.281849,2.71508 c -0.373291,-0.008 -0.513827,0.11467 -0.659392,0.28474 -0.1597,0.18657 -0.202333,0.41879 -0.198954,0.62683 0.0034,0.20807 0.04996,0.40531 0.09767,0.5762 0.447746,1.70121 0.89075,3.40607 1.3415203,5.1077 0.0012,0.005 0.0027,0.009 0.0041,0.0134 0.220064,0.67658 1.156307,0.82718 1.595252,0.28215 0.229592,-0.2292 0.459631,-0.45871 0.68988,-0.68833 l 1.119312,1.11932 c 0.434103,0.4341 1.143582,0.4341 1.577681,0 l 0.904338,-0.90434 c 0.434096,-0.43409 0.4341,-1.1441 0,-1.5782 l -1.115178,-1.11518 c 0.263861,-0.26288 0.529533,-0.5254 0.793234,-0.7891 0.0027,-0.003 0.0053,-0.005 0.0078,-0.008 0.481699,-0.52783 0.152322,-1.43221 -0.550871,-1.53221 -1.789047,-0.47344 -3.577623,-0.95091 -4.631759,-1.22008 -0.443018,-0.11781 -0.7506433,-0.17015 -0.9746173,-0.17518 z m -5.624981,0.33538 h 2.242758 v 2.12235 c -0.66745,0.0287 -1.304568,0.17045 -1.899626,0.39791 -0.200501,-0.7465 -0.322868,-1.60456 -0.343132,-2.52026 z m 5.650819,0.18294 c 0.161469,0.008 0.4276423,0.0659 0.9115723,0.1912 0.967861,0.25052 2.76034,0.72795 4.553728,1.20251 0.01157,0.003 0.0233,0.005 0.03514,0.006 0.266655,0.033 0.420139,0.45045 0.240296,0.65061 -0.322919,0.32289 -0.646572,0.64548 -0.970483,0.96842 -0.103862,0.10343 -0.103862,0.27174 0,0.37517 l 1.300695,1.30069 c 0.233283,0.23328 0.233282,0.59716 0,0.83044 l -0.90227,0.90434 c -0.233279,0.23328 -0.599224,0.23328 -0.832508,0 l -1.304313,-1.30483 c -0.103202,-0.10256 -0.269902,-0.10256 -0.373104,0 -0.294492,0.2945 -0.591142,0.58748 -0.886767,0.88263 -0.0084,0.009 -0.01606,0.0178 -0.02325,0.0274 -0.162216,0.21315 -0.602341,0.14894 -0.685746,-0.10748 -0.449497,-1.69698 -0.8926973,-3.39663 -1.1373993,-4.32377 -0.244702,-0.92714 -0.278479,-1.08831 -0.280603,-1.21905 -0.0021,-0.13074 0.02359,-0.21692 0.07235,-0.27388 0.0645,-0.0754 0.121201,-0.11779 0.28267,-0.11007 z m -3.408061,2.4691 v 2.60346 c -0.529173,-0.13272 -1.050336,-0.65588 -1.461927,-1.51826 -0.103601,-0.21707 -0.197066,-0.45687 -0.283187,-0.71003 0.545393,-0.21287 1.130798,-0.34621 1.745114,-0.37517 z m -2.229839,0.59118 c 0.08861,0.2543 0.184484,0.4983 0.291456,0.72243 0.212052,0.4443 0.464141,0.82804 0.747758,1.13275 -0.797967,-0.2156 -1.5218,-0.60722 -2.134237,-1.12603 0.333982,-0.28393 0.700282,-0.52947 1.095023,-0.72915 z"/></g><text x="0" y="31.933334" fill="#000000" font-size="5px" font-weight="bold" font-family="'Helvetica Neue', Helvetica, Arial-Unicode, Arial, Sans-serif">Created by Ranah Pixel Studio</text><text x="0" y="36.933334" fill="#000000" font-size="5px" font-weight="bold" font-family="'Helvetica Neue', Helvetica, Arial-Unicode, Arial, Sans-serif">from the Noun Project</text></svg>